<svg xmlns="http://www.w3.org/2000/svg" viewBox="0 0 66 120">
                <g id="Scale2">
                    <line x1="38.5" y1="19" x2="58.5" y2="19" style={{ fill: 'none', stroke: '#f1f5f9', strokeMiterlimit: 10 }} />
                    <line x1="38.5" y1="9" x2="58.5" y2="9" style={{ fill: 'none', stroke: '#f1f5f9', strokeMiterlimit: 10 }} />
                    <line x1="38.5" y1="109" x2="58.5" y2="109" style={{ fill: 'none', stroke: '#f1f5f9', strokeMiterlimit: 10 }} />
                    <line x1="38.5" y1="29" x2="58.5" y2="29" style={{ fill: 'none', stroke: '#f1f5f9', strokeMiterlimit: 10 }} />
                    <line x1="38.5" y1="39" x2="58.5" y2="39" style={{ fill: 'none', stroke: '#f1f5f9', strokeMiterlimit: 10 }} />
                    <line x1="38.5" y1="49" x2="58.5" y2="49" style={{ fill: 'none', stroke: '#f1f5f9', strokeMiterlimit: 10 }} />
                    <line x1="38.5" y1="59" x2="58.5" y2="59" style={{ fill: 'none', stroke: '#f1f5f9', strokeMiterlimit: 10 }} />
                    <line x1="38.5" y1="69" x2="58.5" y2="69" style={{ fill: 'none', stroke: '#f1f5f9', strokeMiterlimit: 10 }} />
                    <line x1="38.5" y1="79" x2="58.5" y2="79" style={{ fill: 'none', stroke: '#f1f5f9', strokeMiterlimit: 10 }} />
                    <line x1="38.5" y1="89" x2="58.5" y2="89" style={{ fill: 'none', stroke: '#f1f5f9', strokeMiterlimit: 10 }} />
                    <line x1="38.5" y1="99" x2="58.5" y2="99" style={{ fill: 'none', stroke: '#f1f5f9', strokeMiterlimit: 10 }} />
                </g>
                <g id="Scale1">
                    <line x1="8.5" y1="19" x2="28.5" y2="19" style={{ fill: 'none', stroke: '#f1f5f9', strokeMiterlimit: 10 }} />
                    <line x1="8.5" y1="9" x2="28.5" y2="9" style={{ fill: 'none', stroke: '#f1f5f9', strokeMiterlimit: 10 }} />
                    <line x1="8.5" y1="109" x2="28.5" y2="109" style={{ fill: 'none', stroke: '#f1f5f9', strokeMiterlimit: 10 }} />
                    <line x1="8.5" y1="29" x2="28.5" y2="29" style={{ fill: 'none', stroke: '#f1f5f9', strokeMiterlimit: 10 }} />
                    <line x1="8.5" y1="39" x2="28.5" y2="39" style={{ fill: 'none', stroke: '#f1f5f9', strokeMiterlimit: 10 }} />
                    <line x1="8.5" y1="49" x2="28.5" y2="49" style={{ fill: 'none', stroke: '#f1f5f9', strokeMiterlimit: 10 }} />
                    <line x1="8.5" y1="59" x2="28.5" y2="59" style={{ fill: 'none', stroke: '#f1f5f9', strokeMiterlimit: 10 }} />
                    <line x1="8.5" y1="69" x2="28.5" y2="69" style={{ fill: 'none', stroke: '#f1f5f9', strokeMiterlimit: 10 }} />
                    <line x1="8.5" y1="79" x2="28.5" y2="79" style={{ fill: 'none', stroke: '#f1f5f9', strokeMiterlimit: 10 }} />
                    <line x1="8.5" y1="89" x2="28.5" y2="89" style={{ fill: 'none', stroke: '#f1f5f9', strokeMiterlimit: 10 }} />
                    <line x1="8.5" y1="99" x2="28.5" y2="99" style={{ fill: 'none', stroke: '#f1f5f9', strokeMiterlimit: 10 }} />
                </g>
                <g id="Slit">
                    <line id="Slit-2" data-name="Slit" x1="33.5" y1="8" x2="34" y2="110" style={{ fill: 'none', stroke: ' #070f1e', strokeLinecap: 'round', strokeMiterlimit: 10, strokeWidth: '6px' }} />
                </g>
                <g id="Thumb">
                    <rect id="ThumbBody" x="13.25" y="102" width="40" height="14" rx="1" ry="1" style={{ fill: '#1e2931' }} />
                    <line id="ThumbLine" x1="13.75" y1="109" x2="52.75" y2="109" style={{ fill: 'none', stroke: '#f1f5f9', strokeMiterlimit: 10 }} />
                </g>
            </svg>